PathFileType	4	(X/Y/Z)	G:\マイドライブ\biomec\experimentalData\240725\SJ2.trc
DataRate	CameraRate	NumFrames	NumMarkers	Units	OrigDataRate	OrigDataStartFrame	OrigNumFrames
200.00	200.00	      4	52	mm	200.00	1	      1851
Frame#	Time	handR			wrRI			wrRO			elbRI			elbRO			shRF			shRU			shRB			handL			wrLI			wrLO			elbLI			elbLO			shLF			shLU			shLB			toeR			baRI			baRO			heelR			anRI			anRO			knRI			knRO			troR			toeL			baLI			baLO			heelL			anLI			anLO			knLI			knLO			troL			head			earR			earL			clav			c7			ribR			ribL			xiph			ASISR			ASISL			PSISR			PSISL			t8			t11			L1			L3			LS			COX			
		X1	Y1	Z1	X2	Y2	Z2	X3	Y3	Z3	X4	Y4	Z4	X5	Y5	Z5	X6	Y6	Z6	X7	Y7	Z7	X8	Y8	Z8	X9	Y9	Z9	X10	Y10	Z10	X11	Y11	Z11	X12	Y12	Z12	X13	Y13	Z13	X14	Y14	Z14	X15	Y15	Z15	X16	Y16	Z16	X17	Y17	Z17	X18	Y18	Z18	X19	Y19	Z19	X20	Y20	Z20	X21	Y21	Z21	X22	Y22	Z22	X23	Y23	Z23	X24	Y24	Z24	X25	Y25	Z25	X26	Y26	Z26	X27	Y27	Z27	X28	Y28	Z28	X29	Y29	Z29	X30	Y30	Z30	X31	Y31	Z31	X32	Y32	Z32	X33	Y33	Z33	X34	Y34	Z34	X35	Y35	Z35	X36	Y36	Z36	X37	Y37	Z37	X38	Y38	Z38	X39	Y39	Z39	X40	Y40	Z40	X41	Y41	Z41	X42	Y42	Z42	X43	Y43	Z43	X44	Y44	Z44	X45	Y45	Z45	X46	Y46	Z46	X47	Y47	Z47	X48	Y48	Z48	X49	Y49	Z49	X50	Y50	Z50	X51	Y51	Z51	X52	Y52	Z52	

1	0.000	137.76500	1561.08826	793.87238	151.27179	1614.25574	870.54077	185.61145	1552.95203	882.19714	266.95578	1643.44263	1091.62500	197.39702	1661.00842	1100.91614	236.33876	1574.82690	1390.46289	208.52310	1678.65710	1375.63916	197.13266	1627.08252	1411.39160	637.94604	1523.76282	780.53357	630.88391	1581.05139	857.68427	595.61200	1515.13000	860.11737	546.46509	1615.97375	1080.92554	620.43097	1622.10901	1085.79321	555.02820	1547.09497	1380.32800	603.27411	1591.69739	1399.92236	586.38531	1656.59607	1361.18628	282.37842	1447.15906	54.10160	325.84500	1530.67822	37.57393	202.86966	1548.14612	46.02990	285.83200	1732.69141	42.31717	323.21094	1648.59241	117.10016	229.29318	1665.60706	104.66909	329.62131	1631.31689	476.52435	226.77641	1611.07361	478.17493	222.73996	1571.44983	876.24451	532.01532	1425.04480	57.55573	483.34772	1496.94666	56.00686	595.22400	1523.82458	52.35575	531.35107	1711.14026	41.40944	488.25189	1622.99597	132.02975	576.65582	1643.73718	109.04439	468.84082	1624.69104	478.22693	575.27905	1611.95203	488.07623	566.07764	1568.37622	867.97687	408.25754	1625.77393	1703.41406	318.12415	1540.95361	1558.47412	475.46646	1530.29041	1553.56470	396.43539	1541.54395	1383.00684	408.63254	1655.40747	1469.35339	289.02161	1557.52856	1101.34192	510.35303	1547.52136	1097.35925	394.58759	1514.46130	1227.35840	286.84024	1511.38611	967.88361	508.16788	1512.76831	973.10291	339.07242	1685.37537	994.21783	461.19238	1680.60156	996.77637	411.65320	1727.99365	1260.65747	407.96591	1705.98401	1132.58398	408.95862	1689.71033	1074.65515	403.23166	1684.79163	1027.26050	402.40356	1693.50256	988.07764	401.48816	1715.25769	885.06897	
2	0.005	137.66937	1560.85229	793.94482	151.17419	1614.01953	870.55884	185.50198	1552.75415	882.25494	266.90137	1643.40527	1091.58569	197.34406	1660.97742	1100.87549	236.37231	1574.86670	1390.46167	208.51761	1678.69397	1375.62781	197.15652	1627.12915	1411.38269	638.17322	1523.26270	780.54388	631.19757	1580.47131	857.80377	595.79431	1514.55261	860.24506	546.67108	1615.52661	1080.83691	620.60773	1621.71143	1085.77026	554.99420	1547.07605	1380.34167	603.25909	1591.65906	1399.92944	586.41541	1656.52905	1361.17859	282.37671	1447.15369	54.08411	325.88992	1530.67517	37.58888	202.87880	1548.14636	46.04348	285.81937	1732.69360	42.33567	323.21823	1648.61560	117.12685	229.29344	1665.64612	104.68697	329.60861	1631.33826	476.52548	226.77638	1611.05615	478.13232	222.78796	1571.31677	876.22382	532.01703	1425.05212	57.56905	483.32516	1496.93591	55.99400	595.21399	1523.79736	52.33144	531.34558	1711.13342	41.42153	488.26215	1623.00403	132.02737	576.68903	1643.73413	109.06081	468.84946	1624.69177	478.21799	575.28351	1611.96313	488.08740	566.12427	1568.60730	867.88593	408.29208	1625.77136	1703.40430	318.08276	1540.95959	1558.48499	475.46942	1530.29248	1553.53662	396.44382	1541.57825	1382.98608	408.65594	1655.42310	1469.36133	289.06952	1557.61145	1101.31213	510.36816	1547.57373	1097.33704	394.57483	1514.51660	1227.34192	286.85083	1511.41699	967.91211	508.21335	1512.83411	973.10956	339.08676	1685.40125	994.20435	461.19690	1680.63977	996.75452	411.71454	1728.00977	1260.65356	408.01169	1706.03394	1132.60071	408.98279	1689.74890	1074.64783	403.21484	1684.83789	1027.24072	402.41327	1693.56665	988.06812	401.49194	1715.29382	885.06232	
3	0.010	137.60941	1560.56946	793.99475	151.10663	1613.74194	870.56885	185.39757	1552.56714	882.32184	266.86374	1643.35254	1091.57678	197.30719	1660.93274	1100.85730	236.39070	1574.89783	1390.44238	208.54642	1678.73547	1375.61157	197.12547	1627.17639	1411.36719	638.39948	1522.64087	780.60205	631.41241	1580.01294	857.82086	595.97760	1513.94458	860.32300	546.82764	1615.17847	1080.83044	620.77759	1621.30225	1085.74634	554.96100	1547.04944	1380.36584	603.23627	1591.56775	1399.95825	586.42969	1656.44836	1361.15149	282.35977	1447.15662	54.09858	325.87869	1530.67517	37.57632	202.89037	1548.13916	46.03669	285.80606	1732.69495	42.31129	323.20346	1648.68140	117.10205	229.29370	1665.62769	104.68771	329.59708	1631.31836	476.53323	226.79437	1611.05176	478.16287	222.82300	1571.22998	876.19153	532.02673	1425.04614	57.58123	483.31201	1496.95325	55.99215	595.21198	1523.79639	52.33696	531.34558	1711.14136	41.40699	488.26517	1622.99915	132.03638	576.67432	1643.74976	109.07518	468.86728	1624.71167	478.22534	575.27509	1611.95459	488.09140	566.09344	1568.45251	867.93994	408.26672	1625.77527	1703.41870	318.37460	1541.06030	1558.45081	475.47043	1530.29370	1553.55920	396.43683	1541.63440	1382.99744	408.68478	1655.45740	1469.37085	289.08408	1557.68005	1101.28674	510.34973	1547.62231	1097.36499	394.57037	1514.54614	1227.32227	286.84662	1511.45996	967.90265	508.23117	1512.87134	973.11676	338.89642	1685.47925	994.00891	461.20032	1680.68787	996.75385	411.72977	1728.03394	1260.66492	408.02802	1706.08057	1132.58740	408.97610	1689.79980	1074.65808	403.23773	1684.88098	1027.24231	402.38989	1693.64600	988.06262	401.48880	1715.33704	885.04681	
4	0.015	137.54211	1560.23083	794.06250	151.05292	1613.45178	870.58295	185.32761	1552.32715	882.38043	266.83017	1643.31348	1091.58362	197.27269	1660.89709	1100.85071	236.38818	1574.93604	1390.45728	208.53783	1678.76526	1375.60010	197.15321	1627.20667	1411.37634	638.64478	1521.98755	780.69379	631.69751	1579.70776	857.77539	596.24933	1513.36243	860.41278	546.98132	1614.87073	1080.78662	620.94684	1620.81067	1085.71008	554.90332	1547.01770	1380.39185	603.27460	1591.47168	1399.96960	586.49689	1656.38135	1361.13306	282.36533	1447.15295	54.08833	325.85431	1530.68567	37.58640	202.87349	1548.15759	46.03547	285.82837	1732.69727	42.31419	323.20651	1648.70288	117.12537	229.29272	1665.62793	104.66332	329.60013	1631.30090	476.52051	226.80032	1611.05115	478.14676	222.88568	1571.13037	876.22241	532.02386	1425.06030	57.58053	483.32788	1496.93652	56.00831	595.21722	1523.79309	52.34360	531.33124	1711.13562	41.39052	488.27173	1622.99182	132.00513	576.64630	1643.77014	109.03333	468.86826	1624.70447	478.21320	575.31085	1611.97888	488.08374	566.13623	1568.54968	867.97919	408.28632	1625.76941	1703.42273	318.08908	1541.00586	1558.48425	475.42822	1530.32886	1553.52710	396.42911	1541.67798	1382.97241	408.67624	1655.47888	1469.36475	289.04803	1557.70386	1101.31458	510.37729	1547.64819	1097.36401	394.57242	1514.59875	1227.31287	286.85596	1511.49548	967.91626	508.24344	1512.92712	973.10760	339.11008	1685.45154	994.21143	461.19159	1680.74890	996.77728	411.74704	1728.06213	1260.67871	407.99756	1706.12573	1132.60205	408.97601	1689.84985	1074.66138	403.26715	1684.91418	1027.24805	402.41837	1693.69775	988.05682	401.52005	1715.37561	885.06659	
